<svg id="visual" viewBox="0 0 1524 762" width="1524" height="762" xmlns="http://www.w3.org/2000/svg" xmlns:xlink="http://www.w3.org/1999/xlink" version="1.1"><path d="M0 268L139 275L277 222L416 207L554 138L693 138L831 214L970 306L1108 245L1247 291L1385 176L1524 153L1524 0L1385 0L1247 0L1108 0L970 0L831 0L693 0L554 0L416 0L277 0L139 0L0 0Z" fill="#00cc8e"></path><path d="M0 359L139 359L277 329L416 306L554 192L693 214L831 329L970 420L1108 321L1247 420L1385 245L1524 275L1524 151L1385 174L1247 289L1108 243L970 304L831 212L693 136L554 136L416 205L277 220L139 273L0 266Z" fill="#00b98a"></path><path d="M0 473L139 489L277 435L416 473L554 382L693 367L831 451L970 512L1108 489L1247 512L1385 367L1524 451L1524 273L1385 243L1247 418L1108 319L970 418L831 327L693 212L554 190L416 304L277 327L139 357L0 357Z" fill="#00a784"></path><path d="M0 603L139 626L277 580L416 534L554 466L693 466L831 580L970 664L1108 580L1247 573L1385 489L1524 580L1524 449L1385 365L1247 510L1108 487L970 510L831 449L693 365L554 380L416 471L277 433L139 487L0 471Z" fill="#00957c"></path><path d="M0 763L139 763L277 763L416 763L554 763L693 763L831 763L970 763L1108 763L1247 763L1385 763L1524 763L1524 578L1385 487L1247 571L1108 578L970 662L831 578L693 464L554 464L416 532L277 578L139 624L0 601Z" fill="#038373"></path></svg>